<svg width="528" height="503" viewBox="0 0 528 503" fill="none" xmlns="http://www.w3.org/2000/svg">
<g clip-path="url(#clip0_369_386)">
<path d="M51.6295 244.262C47.8595 244.869 44.2154 244.935 40.5325 243.815C40.2159 243.717 39.9021 243.611 39.591 243.498C39.2798 243.385 38.9718 243.265 38.6668 243.138C38.3618 243.01 38.0603 242.876 37.7622 242.734C37.4641 242.593 37.1698 242.445 36.8794 242.29C36.5889 242.135 36.3026 241.973 36.0204 241.805C35.7382 241.636 35.4605 241.461 35.1873 241.28C34.9141 241.099 34.6457 240.911 34.3821 240.717C34.1185 240.524 33.8601 240.324 33.6068 240.118C33.3534 239.912 33.1055 239.7 32.863 239.483C32.6206 239.266 32.3838 239.043 32.1528 238.814C31.9217 238.586 31.6967 238.352 31.4776 238.114C31.2586 237.874 31.0458 237.631 30.8392 237.382C30.6327 237.133 30.4327 236.88 30.2392 236.622C30.0456 236.363 29.8588 236.101 29.6787 235.834C29.4987 235.567 29.3256 235.296 29.1594 235.021C28.9932 234.747 28.8342 234.468 28.6823 234.186C28.5205 233.889 28.3664 233.588 28.2201 233.284C28.0737 232.98 27.9353 232.672 27.8048 232.362C27.6743 232.051 27.5519 231.738 27.4375 231.421C27.3231 231.105 27.2169 230.786 27.1189 230.464C27.0209 230.143 26.9312 229.82 26.8498 229.494C26.7684 229.169 26.6955 228.842 26.631 228.513C26.5664 228.184 26.5104 227.853 26.4628 227.522C26.4153 227.191 26.3763 226.858 26.3458 226.525C26.3154 226.192 26.2935 225.858 26.2802 225.523C26.2669 225.189 26.2623 224.854 26.2662 224.52C26.2701 224.185 26.2826 223.851 26.3037 223.517C26.3248 223.183 26.3545 222.849 26.3928 222.517C26.431 222.184 26.4778 221.853 26.5331 221.522C26.5884 221.192 26.6522 220.863 26.7244 220.536C26.7966 220.208 26.8772 219.882 26.9662 219.559C27.0552 219.235 27.1524 218.914 27.2579 218.594C27.3626 218.28 27.4755 217.969 27.5964 217.66C27.7174 217.352 27.8463 217.046 27.9833 216.744C28.1202 216.442 28.2649 216.143 28.4174 215.847C28.5699 215.552 28.7301 215.26 28.8979 214.972C29.0657 214.684 29.2408 214.4 29.4234 214.12C29.606 213.841 29.7958 213.565 29.9927 213.295C30.1897 213.024 30.3936 212.758 30.6045 212.497C30.8153 212.236 31.0329 211.98 31.2571 211.73C31.4813 211.479 31.7119 211.233 31.9489 210.994C32.1859 210.754 32.4291 210.52 32.6783 210.292C32.9276 210.064 33.1826 209.841 33.4435 209.625C33.7043 209.409 33.9707 209.199 34.2425 208.996C34.5143 208.792 34.7912 208.595 35.0734 208.405C35.3554 208.214 35.6423 208.03 35.934 207.853C36.2257 207.677 36.5218 207.507 36.8224 207.344C37.1229 207.181 37.4276 207.026 37.7362 206.877C42.7459 204.494 48.96 203.972 54.269 205.745C60.34 207.773 64.1772 212.351 66.8487 217.719C68.6235 224.128 68.939 229.217 65.2843 235.156C62.4875 239.7 58.0459 242.752 52.7005 244.033C52.3436 244.119 51.9899 244.193 51.6295 244.262Z" fill="#475595"/>
<path d="M484.099 262.32C485.334 265.859 486.96 269.211 488.404 272.671C490.181 276.951 491.799 281.286 493.256 285.675C502.215 312.812 501.589 339.251 494.503 366.636C493.529 370.557 492.328 374.414 490.9 378.207C489.346 382.294 484.914 390.409 484.693 394.158C484.686 394.268 484.672 394.377 484.661 394.486C483.906 390.935 483.726 384.768 483.341 380.814L479.981 342.452C478.795 330.038 477.706 317.617 476.714 305.189C476.36 301.225 475.121 292.896 475.348 289.538C475.84 289.229 476.313 288.91 476.785 288.574C477.551 285.919 475.851 276.585 475.456 273.304C478.108 269.539 481.183 265.903 484.099 262.32Z" fill="#AE76A6"/>
<path d="M66.8487 217.719C72.6882 208.34 77.055 186.448 77.1422 175.443C77.1994 168.197 76.1357 160.859 76.7632 153.645C77.5516 144.576 80.7495 133.585 84.9008 125.45C97.8646 100.051 118.928 82.4213 146.913 73.3186C177.565 63.3485 212.278 65.2608 242.564 75.3468C247.651 77.0405 252.733 78.8138 257.572 81.0886C275.218 89.3837 292.94 101.412 306.622 114.904C310.958 119.18 314.853 123.91 318.914 128.427C322.106 131.977 329.532 140.648 330.975 144.716L368.604 144.724C374.987 144.738 381.612 144.455 387.967 144.908C388.093 172.6 388.062 200.292 387.874 227.984C391.208 216.449 393.202 195.428 405.218 189.035C405.878 188.678 406.567 188.381 407.284 188.145C408.001 187.909 408.735 187.738 409.486 187.632C412.058 187.25 414.826 187.427 417.429 187.423C422.249 187.44 427.068 187.411 431.887 187.336L431.893 181.149C429.355 180.709 427.199 179.816 425.697 177.712C423.267 174.308 423.902 169.804 424.764 166.022L424.94 165.262C423.112 163.749 422.48 162.356 421.982 160.13C422.426 158.456 423.24 156.031 424.831 155.045C426.233 154.175 428.21 154.406 429.763 153.88C431.092 153.429 432.157 152.403 433.428 151.833C435.741 150.796 439.852 151.252 442.257 151.848C446.512 152.903 450.493 155.311 452.682 159.026C454.512 162.131 454.893 165.674 453.836 169.077C452.862 172.212 450.64 175.106 447.549 176.621C446.808 176.984 445.993 177.283 445.197 177.521C444.772 180.814 444.956 184.283 444.998 187.597C450.531 187.654 467.08 186.533 470.934 190.221C472 191.242 472.879 192.448 473.65 193.681C476.641 198.463 498.511 237.033 498.583 240.206C498.696 245.168 487.421 257.638 484.099 262.32C481.183 265.903 478.108 269.539 475.456 273.304C475.851 276.585 477.551 285.919 476.785 288.574C476.313 288.91 475.84 289.229 475.348 289.538C475.121 292.896 476.36 301.225 476.714 305.189C477.706 317.617 478.795 330.038 479.981 342.452L483.341 380.814C483.726 384.768 483.906 390.935 484.661 394.486C484.797 397.12 485.644 413.871 486.626 414.871C486.883 415.133 487.131 415.343 487.222 415.699C487.808 417.985 487.434 431.705 487.503 435.246C491.697 435.228 522.132 434.789 523.576 435.619L523.483 435.864C518.415 436.531 488.357 435.502 487.539 436.442C487.466 436.525 487.33 436.882 487.284 436.993L122.905 436.143L34.2172 436.096C30.2122 436.092 6.69207 436.596 4.44006 435.863C5.26513 435.456 6.18 435.288 7.10168 435.213C9.71899 435.003 12.5388 435.271 15.1767 435.272C23.7216 435.276 32.4454 435.62 40.9664 435.252C43.8661 434.92 46.9289 435.108 49.8503 435.11L64.859 435.112C61.9281 428.675 57.6067 422.672 54.2577 416.394C46.6054 402.05 40.6968 387.523 36.1648 372.024C35.1467 368.542 34.7465 363.32 32.8952 360.289C29.9785 363.164 17.1587 376.514 14.593 377.295C14.0708 377.454 14.2908 377.449 13.7839 377.2C13.8042 376.274 14.4396 375.442 15.0111 374.731C16.5165 372.856 18.6218 371.175 20.3613 369.481C24.829 365.132 29.3885 360.842 33.727 356.376C33.6288 356.132 33.5355 355.886 33.4454 355.639C30.8736 348.583 30.3286 338.626 30.1083 331.12C29.1197 297.44 36.2568 274.217 51.6296 244.262C51.99 244.193 52.3437 244.119 52.7005 244.033C58.046 242.752 62.4876 239.7 65.2843 235.156C68.9391 229.217 68.6235 224.128 66.8487 217.719Z" fill="#191818"/>
<path d="M431.583 188.503C433.391 188.565 434.859 189.448 436.428 190.223L434.236 192.348C433.361 193.185 432.448 193.99 431.551 194.806L431.583 188.503Z" fill="#FEFEFE"/>
<path d="M454.982 272.788C458.178 273.97 463.976 278.065 465.99 280.665C465.95 281.38 465.535 281.639 465.067 282.174L462.891 283.05C460.182 279.68 457.546 276.26 454.982 272.788Z" fill="#FEFEFE"/>
<path d="M426.528 164.565C425.056 163.734 424.028 163.014 423.57 161.372C423.204 160.058 423.315 158.725 424.079 157.554C424.812 156.432 426.22 155.48 427.57 155.18C428.212 155.037 428.402 155.102 428.995 155.314C430.1 156.873 429.389 159.241 430.34 161.11L430.059 161.152L429.43 160.998C428.243 162.023 427.541 163.398 426.528 164.565Z" fill="#A3C3D9" fill-opacity="0.7"/>
<path d="M473.835 274.77C474.95 276.004 475.497 285.61 475.741 287.829C472.992 287.965 470.259 288.153 467.63 287.238C466.351 286.371 465.317 285.243 464.375 284.059C465.443 283.361 466.622 282.805 467.645 282.044C470.121 280.201 472.083 277.222 473.835 274.77Z" fill="#475595"/>
<path d="M360.949 237.966C363.757 237.852 366.639 238.15 369.448 238.281C370.347 243.37 370.748 248.625 371.347 253.759L365.617 253.763C363.708 253.758 361.352 254.013 359.486 253.675C358.915 253.571 358.615 253.53 358.344 253.016C357.665 251.728 357.034 243.756 357.723 242.704C358.09 242.144 358.946 242.019 359.555 241.927C360.239 241.825 360.827 241.7 361.484 241.495C361.924 241.055 361.997 241.114 362.082 240.473C361.81 240.197 361.514 239.92 361.269 239.621C360.685 238.906 360.821 238.802 360.949 237.966Z" fill="#FEFEFE"/>
<path d="M427.358 188.767L430.482 188.627C430.327 191.752 430.295 194.968 429.872 198.07C428.16 210.641 424.524 223.067 423.631 235.746L421.757 230.337C420.39 226.288 419.002 222.245 417.592 218.209C418.844 217.696 420.657 217.162 421.597 216.205C422.081 215.713 422.139 215.51 422.096 214.85C421.067 213.571 419.444 213.314 417.896 212.879C421.534 205.104 424.517 196.837 427.358 188.767Z" fill="#475595"/>
<path d="M445.01 188.679C445.75 188.859 446.074 188.822 446.54 189.46C447.609 190.92 456.857 213.964 456.737 214.717C456.004 215.404 455.014 215.434 454.089 215.752C453.446 215.974 453.283 216.164 453.035 216.749C453.4 217.512 458.001 220.488 459 221.27L455.316 228.621C453.98 231.148 452.805 233.812 451.804 236.473C451.174 233.992 450.855 231.383 450.379 228.866C449.212 222.888 448.143 216.894 447.17 210.885C446.388 206.175 445.15 201.355 444.818 196.609C444.636 193.995 444.885 191.295 445.01 188.679Z" fill="#475595"/>
<path d="M440.33 166.877C436.231 164.941 432.491 163.781 430.897 159.115C430.43 157.745 430.35 156.181 431.144 154.903C431.972 153.572 433.551 152.84 435.09 152.528C439.124 151.711 444.11 153.085 447.463 155.287C450.334 157.173 452.575 159.934 453.179 163.263C453.215 163.463 453.245 163.663 453.27 163.865C453.295 164.066 453.314 164.267 453.328 164.47C453.342 164.672 453.35 164.874 453.353 165.076C453.356 165.279 453.354 165.482 453.346 165.684C453.338 165.886 453.325 166.088 453.306 166.29C453.287 166.492 453.263 166.693 453.233 166.894C453.203 167.094 453.168 167.294 453.128 167.493C453.088 167.692 453.042 167.89 452.991 168.086C452.94 168.283 452.884 168.478 452.822 168.672C452.76 168.866 452.694 169.058 452.622 169.249C452.55 169.439 452.473 169.628 452.391 169.815C452.309 170.002 452.222 170.186 452.13 170.369C452.038 170.552 451.941 170.732 451.839 170.909C451.737 171.087 451.631 171.263 451.519 171.436C451.408 171.608 451.293 171.778 451.172 171.945C451.052 172.112 450.927 172.276 450.798 172.437C449.993 173.443 448.769 174.663 447.588 175.259C447.369 174.641 447.463 174.037 447.343 173.405C447.072 171.971 445.076 170.225 443.854 169.487C443.872 169.398 443.894 169.309 443.908 169.219C444.034 168.4 443.93 168.055 443.421 167.43C442.463 166.917 441.403 166.947 440.33 166.877Z" fill="#A3C3D9" fill-opacity="0.7"/>
<path d="M430.34 161.11C432.118 163.556 435.172 166.75 438.404 167.23C439.153 167.341 439.665 167.242 440.33 166.877C441.403 166.947 442.463 166.917 443.421 167.43C443.93 168.055 444.034 168.4 443.908 169.219C443.894 169.309 443.872 169.398 443.854 169.487C443.942 171.659 445.995 172.249 446.252 174.136C446.523 176.129 444.547 175.529 444.15 176.862C443.452 179.202 444.331 185.845 443.792 187.128C443.494 187.839 442.539 187.467 441.981 188.149L442.132 188.516L443.352 188.724C444.293 189.979 443.535 193.652 443.397 195.209C441.614 193.387 439.68 190.911 437.562 189.499C436.208 188.596 434.703 188.09 433.391 187.082C433.312 187.022 433.235 186.959 433.157 186.898L433.111 180.145C432.463 180.078 431.769 180.026 431.135 179.875C429.136 179.397 427.232 178.13 426.182 176.431C424.31 173.401 425.157 169.905 425.941 166.713C427.778 165.221 429.697 163.548 430.059 161.152L430.34 161.11Z" fill="#FEFEFE"/>
<path d="M231.711 277.538L242.11 277.536L242.076 319.098L231.586 319.062C231.546 305.221 231.587 291.379 231.711 277.538Z" fill="#AE76A6"/>
<path d="M285.883 268.012L295.445 267.984C295.467 285.055 295.878 302.17 295.638 319.235C292.336 319.19 289.028 319.228 285.725 319.23C285.92 302.157 285.973 285.085 285.883 268.012Z" fill="#475595"/>
<path d="M337.034 265.056L346.752 265.053L346.761 319.085L337.055 319.069L337.034 265.056Z" fill="#AE76A6"/>
<path d="M208.66 252.365L215.461 252.299L215.472 319.213L212.569 319.177C210.206 319.186 207.843 319.176 205.481 319.149L205.486 252.411L208.66 252.365Z" fill="#475595"/>
<path d="M393.508 416.376C396.786 415.942 400.321 416.16 403.63 416.168C409.282 416.168 414.934 416.203 420.586 416.273C420.489 422.751 420.103 429.239 419.956 435.722C415.255 435.845 410.527 435.742 405.824 435.741C405.84 434.605 405.864 433.465 405.848 432.329C405.837 431.585 405.866 430.852 405.287 430.313L404.737 430.538C403.916 431.9 404.83 434.024 404.354 435.577L403.799 435.767L369.982 435.743C370.952 432.859 372.21 430.296 374.078 427.83C374.362 427.451 374.657 427.08 374.96 426.715C375.264 426.35 375.577 425.993 375.9 425.643C376.222 425.293 376.554 424.951 376.894 424.617C377.234 424.282 377.582 423.956 377.939 423.638C378.296 423.32 378.661 423.011 379.034 422.71C379.408 422.409 379.788 422.117 380.176 421.834C380.565 421.552 380.96 421.278 381.362 421.014C381.765 420.75 382.174 420.495 382.59 420.25C383.005 420.005 383.427 419.77 383.855 419.545C384.283 419.319 384.716 419.104 385.155 418.9C385.594 418.695 386.038 418.501 386.487 418.317C386.936 418.133 387.39 417.96 387.847 417.798C388.306 417.635 388.768 417.483 389.233 417.343C389.699 417.202 390.168 417.072 390.641 416.953C391.114 416.835 391.589 416.727 392.067 416.631C392.545 416.535 393.026 416.45 393.508 416.376Z" fill="#FEFEFE"/>
<path d="M312.428 230.339C315.654 230.322 318.881 230.329 322.107 230.358C322.375 259.946 322.465 289.535 322.379 319.125H312.41L312.428 230.339Z" fill="#AE76A6"/>
<path d="M464.293 416.176L486.085 416.192C486.073 422.714 486.099 429.236 486.164 435.757L471.511 435.754C471.508 434.215 471.822 431.186 470.663 430.038C469.657 431.418 470.036 434.171 470.098 435.772L461.355 435.771C452.019 435.801 442.641 436.008 433.31 435.76C434.583 431.618 436.634 427.887 439.761 424.742C446.604 417.858 454.735 416.399 464.293 416.176Z" fill="#FEFEFE"/>
<path d="M437.4 191.283C439.317 193.131 441.149 195.071 443.301 196.677L455.681 266.539L438.152 266.526L419.589 266.466C420.603 259.275 422.001 252.09 423.184 244.919C425.695 228.688 428.449 212.494 431.445 196.337C433.636 194.942 435.502 193.016 437.4 191.283Z" fill="#FEFEFE"/>
<path d="M436.818 315.535C437.394 316.25 457.309 404.904 459.83 414.986C458.36 415.125 456.887 415.265 455.431 415.505C447.074 416.883 440.583 420.949 435.708 427.515C434.011 430.163 432.955 432.958 431.858 435.861C428.382 435.927 424.906 435.915 421.43 435.826C421.51 428.648 421.423 421.223 422.112 414.078C422.494 410.114 423.319 406.145 423.91 402.2C425.312 392.813 426.777 383.434 428.304 374.065C431.504 354.602 434.342 335.093 436.818 315.535Z" fill="#AE76A6"/>
<path d="M447.928 188.847C452.979 188.854 465.618 188.048 469.572 191.046C470.765 191.95 471.827 193.66 472.612 194.903C476.564 201.172 479.974 207.914 483.608 214.366C487.721 221.668 492.307 229.037 495.726 236.649C496.246 237.808 496.866 239.318 496.845 240.579C496.807 242.901 493.167 247.94 491.753 249.973C487.013 256.789 481.487 263.351 476.221 269.815C473.474 273.188 470.872 276.828 467.865 279.985C465.365 278.377 463.162 276.321 460.76 274.578C458.84 273.183 456.686 272.091 454.58 270.976C456.71 267.235 459.513 263.723 462.007 260.187C465.72 254.871 469.403 249.536 473.056 244.183L475.057 241.409C472.205 234.466 469.26 227.559 466.223 220.687C465.077 218.061 464.134 215.132 462.818 212.618L462.399 212.57L461.865 213.002C461.694 214.392 471.835 237.492 473.298 240.885L462.212 257.413C460.364 260.121 458.593 262.95 456.523 265.507C456.355 261.91 455.564 258.313 454.941 254.765L452.189 238.955C454.889 233.024 457.53 226.974 460.643 221.228C459.274 219.487 457.676 218.068 455.923 216.687C456.972 216.239 457.976 215.733 458.989 215.217C454.929 206.587 451.645 197.615 447.928 188.847Z" fill="#475595"/>
<path d="M409.96 188.925C415.113 188.486 420.54 188.811 425.72 188.835C422.955 197.202 419.054 205.213 416.255 213.547C417.617 214.26 419.085 214.852 420.493 215.484C418.885 216.134 417.269 216.762 415.642 217.367C417.029 221.08 422.705 235.673 422.693 238.454C422.676 243.02 420.645 251.543 419.813 256.374C418.837 262.043 417.452 274.291 415.575 278.968C414.568 281.479 412.659 284.074 410.58 285.887C407.373 288.684 403.54 288.032 399.566 287.828C399.753 283.905 400.461 279.904 400.945 275.999C402.391 264.349 404.362 252.77 405.84 241.129C407.046 234.329 407.941 227.293 408.77 220.442C408.916 219.224 409.176 217.437 408.34 216.431C407.818 216.858 407.717 217.602 407.592 218.218C406.768 222.28 406.48 226.535 405.904 230.642C404.671 239.621 403.359 248.59 401.968 257.549C392.433 257.622 382.899 257.649 373.364 257.63C372.093 251.527 371.676 245.074 370.926 238.889C376.167 239.014 381.417 239.497 386.645 239.871C386.914 236.787 388.17 233.663 388.86 230.626C391.224 220.227 393.542 204.497 399.857 195.65C402.322 192.197 405.59 189.717 409.96 188.925Z" fill="#475595"/>
<path d="M97.2216 320.344C107.931 320.054 118.746 320.372 129.464 320.389L190.609 320.417L385.865 320.491C385.766 325.951 385.718 331.412 385.721 336.872C383.144 337.225 380.217 336.977 377.593 336.976L360.814 336.95L303.175 336.957L97.2139 336.971L97.2216 320.344Z" fill="#A3C3D9" fill-opacity="0.7"/>
<path d="M225.91 338.947L251.217 338.962C251.434 341.878 252.032 344.783 252.497 347.672L254.68 361.532C257.4 378.852 260.346 396.151 262.897 413.495C269.445 413.34 276.024 413.443 282.575 413.436C286.495 413.432 290.606 413.178 294.507 413.478C295.472 413.552 296.588 413.649 297.421 414.158C298.75 414.969 299.548 416.291 299.792 417.758C300.206 420.237 300.197 428.462 299.638 430.912C299.378 432.057 298.933 432.89 298.201 433.823C297.09 434.461 295.703 434.628 294.425 434.722C289.76 435.064 284.847 434.777 280.159 434.766L252.27 434.729L204.614 434.726L189.871 434.743C187.371 434.748 184.729 434.931 182.245 434.695C181.225 434.598 180.537 434.322 179.779 433.666C178.575 432.623 178.352 431.204 178.251 429.716C178.09 427.351 177.987 419.357 178.339 417.257C178.504 416.272 178.873 415.285 179.604 414.549C180.392 413.754 181.931 413.616 183.007 413.493C186.408 413.105 190.148 413.373 193.588 413.374L213.852 413.341C215.626 406.917 216.099 399.271 217.21 392.618L225.91 338.947Z" fill="#FEFEFE"/>
<path d="M419.255 267.815C431.022 267.571 442.858 267.886 454.635 267.795C453.907 268.855 453.197 269.925 452.505 271.006C455.061 275.495 460.443 282.982 464.239 286.535C467.333 289.431 469.92 289.577 474.036 289.53C474.34 295 474.949 300.474 475.406 305.936C476.73 321.371 478.146 336.798 479.654 352.217L483.147 392.224C483.771 399.778 484.245 407.353 485.038 414.894C476.996 414.825 468.954 414.811 460.913 414.851C459.746 407.1 457.464 399.386 455.727 391.728C451.035 371.026 445.73 350.395 441.486 329.609C440.966 326.103 439.988 322.567 439.244 319.092C438.626 316.199 438.215 313.105 437.372 310.277C437.212 309.742 437.262 309.635 436.733 309.349C436.611 309.439 436.45 309.495 436.366 309.618C435.987 310.177 434.495 323.932 434.213 325.866C429.977 355.574 425.415 385.236 420.528 414.853L395.952 414.938C396.703 384.431 398.894 353.426 400.535 322.904L401.647 303.226C401.952 298.623 402.463 293.98 402.459 289.368C405.586 289.544 408.203 289.376 410.843 287.544C417.445 282.961 417.957 274.811 419.255 267.815Z" fill="#475595"/>
<path d="M387.994 259.058C392.567 259.014 397.145 259.056 401.718 259.056C399.909 268.847 399.208 279.061 398.075 288.946L401.223 289.358C400.59 296.456 400.319 303.589 399.938 310.703L398.378 339.582C396.901 364.715 395.586 389.856 394.434 415.005C390.822 415.52 387.381 416.418 384.115 418.005C376.605 421.656 371.248 427.933 368.661 435.52C360.577 435.739 352.441 435.575 344.351 435.59L299.585 435.658C300.116 435.061 300.636 434.402 301.037 433.718C302.729 430.84 302.752 419.95 301.857 416.831C301.15 414.37 299.809 412.923 297.531 411.664C294.599 410.724 269.478 411.325 264.59 411.334C262.963 404.086 262.147 396.496 260.967 389.162L253.075 339.002L347.111 338.925L372.861 338.932C377.546 338.94 382.64 339.358 387.249 338.679L387.25 338.331L387.492 338.613L387.588 338.575C388.464 336.935 388.01 266.469 387.994 259.058Z" fill="#AE76A6"/>
<path d="M66.8487 217.719C72.6882 208.34 77.055 186.448 77.1421 175.443C77.1994 168.197 76.1356 160.859 76.7631 153.645C77.5515 144.576 80.7494 133.585 84.9007 125.45C97.8646 100.051 118.928 82.4213 146.913 73.3186C177.565 63.3485 212.278 65.2608 242.564 75.3468C247.651 77.0405 252.733 78.8138 257.572 81.0886C275.218 89.3837 292.94 101.412 306.622 114.904C310.958 119.18 314.853 123.91 318.914 128.427C322.106 131.977 329.532 140.648 330.975 144.716L173.848 144.699L123.69 144.707C115.22 144.708 106.589 144.36 98.1435 144.75C97.0313 144.802 96.2429 144.921 95.2834 145.489C95.916 151.216 95.6118 157.142 95.6164 162.9L95.6479 192.284L95.6634 294.059L95.6716 321.93C95.6448 327.662 95.355 333.541 95.7087 339.258C101.076 338.756 106.64 338.992 112.034 338.978L140.978 338.962L223.957 338.923C223.505 343.787 222.482 348.641 221.698 353.466C220.34 362.172 218.915 370.868 217.42 379.553C215.62 390.115 214.428 400.873 212.33 411.377L192.283 411.359C189.037 411.357 185.383 411.042 182.185 411.533C180.767 411.751 178.829 412.224 177.819 413.28C176.894 414.247 176.428 415.693 176.22 416.957C175.826 419.344 175.787 428.06 176.067 430.56C176.291 432.56 176.974 433.832 178.304 435.365L82.8821 435.37C74.0793 435.33 65.2766 435.336 56.4738 435.387C51.3681 435.406 46.0398 435.694 40.9664 435.252C43.866 434.92 46.9288 435.108 49.8503 435.11L64.8589 435.112C61.9281 428.675 57.6066 422.672 54.2577 416.394C46.6053 402.05 40.6967 387.523 36.1647 372.024C35.1466 368.542 34.7465 363.32 32.8952 360.289C29.9784 363.164 17.1587 376.514 14.593 377.295C14.0707 377.454 14.2907 377.449 13.7839 377.2C13.8041 376.274 14.4395 375.442 15.011 374.731C16.5165 372.856 18.6217 371.175 20.3613 369.481C24.8289 365.132 29.3885 360.842 33.727 356.376C33.6287 356.132 33.5355 355.886 33.4453 355.639C30.8735 348.583 30.3286 338.626 30.1083 331.12C29.1197 297.44 36.2568 274.217 51.6295 244.262C51.9899 244.193 52.3437 244.119 52.7005 244.033C58.046 242.752 62.4875 239.7 65.2843 235.156C68.939 229.217 68.6235 224.128 66.8487 217.719Z" fill="#AE76A6"/>
<path d="M95.7088 339.258C95.0544 339.315 94.6414 339.307 94.0139 339.117C93.9902 339.033 93.9613 338.951 93.9438 338.866C93.3699 336.15 93.8216 326.757 93.8267 323.4C93.8137 308.802 93.8992 294.205 94.0835 279.609L94.0417 186.794C94.0639 174.435 93.8339 162.011 94.165 149.659C94.2093 148.014 94.3222 146.895 95.2834 145.489C95.916 151.216 95.6118 157.142 95.6165 162.9L95.6479 192.284L95.6634 294.06L95.6716 321.93C95.6448 327.662 95.355 333.541 95.7088 339.258Z" fill="#8A8988"/>
<path d="M33.727 356.376C37.6143 352.662 41.6823 350.1 47.3638 350.067C54.9326 350.023 59.3665 354.342 64.4098 359.073L74.0257 368.127C80.3158 374.081 86.9895 381.028 96.8163 377.028C100.976 375.335 104.522 371.564 107.673 368.568C110.654 365.735 113.557 362.825 116.504 359.961C121.65 354.96 126.535 349.857 134.438 349.827C141.156 349.802 145.813 353.563 150.308 357.893C155.52 362.915 164.267 372.948 170.42 376.231C172.641 377.415 175.071 378.056 177.617 378.072C184.77 378.114 189.781 373.405 194.508 368.88C197.178 366.323 214.389 349.398 216.048 349.053C216.513 349.107 216.676 349.18 217.024 349.477C217.062 350.747 216.205 351.603 215.322 352.482C211.533 356.254 207.389 359.802 203.482 363.471C196.923 369.63 188.518 380.006 178.396 380.124C170.185 380.22 165.426 375.514 159.965 370.367C157.394 367.946 154.877 365.475 152.413 362.955C147.466 357.931 142.263 351.854 134.366 351.896C127.438 351.933 123.211 356.545 118.732 360.88C115.312 364.237 111.852 367.557 108.352 370.838C102.985 375.797 97.8971 380.718 89.8347 380.153C87.4443 379.985 85.0069 379.339 82.9073 378.227C80.2601 376.826 78.0058 374.675 75.8495 372.677L65.2116 362.738C62.0647 359.774 58.7699 355.932 54.8903 353.882C54.5971 353.73 54.2991 353.587 53.9962 353.453C53.693 353.32 53.3856 353.196 53.0738 353.082C52.7623 352.968 52.4471 352.863 52.1281 352.769C51.8095 352.675 51.4877 352.59 51.163 352.516C50.8383 352.442 50.5114 352.378 50.1823 352.324C49.8532 352.271 49.5226 352.228 49.1905 352.195C48.8584 352.162 48.5255 352.14 48.1918 352.127C47.8582 352.115 47.5245 352.114 47.1908 352.123C40.7261 352.241 37.0091 356.152 32.8952 360.289C29.9784 363.164 17.1587 376.514 14.593 377.295C14.0707 377.454 14.2907 377.449 13.7839 377.2C13.8041 376.274 14.4395 375.442 15.011 374.731C16.5165 372.856 18.6217 371.175 20.3613 369.481C24.8289 365.132 29.3885 360.842 33.727 356.376Z" fill="#191818"/>
<path d="M136.701 84.0585C139.968 83.61 143.237 84.1449 146.101 85.7286C146.309 85.8462 146.515 85.9685 146.717 86.0955C146.92 86.2226 147.119 86.3542 147.315 86.4905C147.51 86.627 147.702 86.768 147.891 86.9134C148.079 87.0588 148.263 87.2086 148.444 87.3629C148.625 87.5168 148.801 87.6749 148.973 87.8374C149.146 87.9998 149.314 88.1662 149.478 88.3364C149.642 88.5067 149.801 88.6808 149.956 88.8586C150.11 89.0364 150.26 89.2177 150.406 89.4024C150.551 89.5874 150.692 89.7755 150.828 89.9668C150.963 90.1583 151.094 90.3529 151.219 90.5503C151.345 90.7478 151.465 90.9482 151.58 91.1516C151.696 91.3546 151.806 91.5604 151.91 91.769C152.015 91.9773 152.114 92.1879 152.207 92.4007C152.301 92.6139 152.389 92.8291 152.472 93.0462C152.554 93.2633 152.631 93.4822 152.702 93.7029C152.774 93.9236 152.839 94.146 152.899 94.37C153.774 97.6842 153.181 101.069 151.349 103.995C148.906 107.894 145.247 109.914 140.709 110.981C137.304 111.221 134.292 110.955 131.285 109.227C127.845 107.25 125.027 103.822 124.202 100.046C123.446 96.5868 124.362 92.4921 126.482 89.6136C129.006 86.1859 132.567 84.7884 136.701 84.0585Z" fill="#A3C3D9" fill-opacity="0.7"/>
<path d="M97.118 146.656L280.57 146.708L348.928 146.705C361.196 146.702 373.579 146.355 385.834 146.751L385.934 203.179C385.936 214.93 386.101 226.743 385.707 238.488C381.544 238.254 377.337 238.117 373.19 237.72C369.521 237.368 365.876 236.61 362.179 236.581C361.451 236.575 360.556 236.51 360 237.032C359.5 237.502 359.249 237.996 359.304 238.666C359.348 239.203 359.459 239.741 359.56 240.27L359.343 240.633C358.259 240.891 357.341 240.939 356.741 241.952C355.767 243.594 356.257 245.95 355.731 247.793C355.78 247.894 355.829 247.995 355.876 248.096C356.34 249.097 356.443 249.607 356.359 250.671C356.284 251.623 356.256 252.686 356.9 253.485C357.963 254.804 360.21 255.049 361.816 255.094C365.078 255.183 368.348 255.113 371.612 255.182L372.09 258.829C376.606 258.876 381.259 258.689 385.754 259.028C385.778 279.085 385.587 299.171 385.867 319.224L348.186 319.196C348.088 307.464 348.068 295.731 348.126 283.999C348.117 277.712 347.575 269.876 348.333 263.785L335.613 263.735L335.648 319.183L323.726 319.193L323.516 229.077L310.965 229.083L310.934 319.065C306.322 319.061 301.706 319.096 297.095 319.043C296.951 301.598 297.301 284.12 296.862 266.681L284.623 266.703L284.568 319.126L269.942 319.112C265.694 319.088 261.446 319.096 257.198 319.136C252.643 319.232 248.087 319.244 243.531 319.173C243.426 304.882 243.686 290.589 243.535 276.3C239.105 276.299 234.67 276.258 230.24 276.303L230.226 319.171C225.802 319.209 221.377 319.22 216.953 319.204L216.873 270.225C216.849 263.822 217.192 257.356 216.911 250.964L204.25 251.01C204.049 259.271 204.2 267.549 204.219 275.812L204.215 319.14L97.2422 319.036L97.2737 211.671L97.1262 168.822C97.1061 161.457 96.8643 154.015 97.118 146.656Z" fill="#FEFEFE"/>
<path d="M114.775 272.499C119.404 272.335 124.09 272.466 128.725 272.466L155.542 272.463C159.363 272.461 171.58 271.908 174.532 272.611L174.755 272.994L174.51 273.447C169.385 273.608 115.554 273.68 115.144 273.505C114.991 273.44 114.872 273.318 114.736 273.225L114.775 272.499Z" fill="#191818"/>
<path d="M114.188 287.917C114.438 287.883 114.689 287.856 114.941 287.836C118.366 287.573 121.918 287.723 125.353 287.723L144.646 287.766L165.063 287.835C167.715 287.843 170.509 287.648 173.144 287.785C173.868 287.823 174.21 287.902 174.762 288.344L174.726 289.005C169.712 289.17 115.785 289.062 114.725 288.701C114.295 288.554 114.334 288.292 114.188 287.917Z" fill="#191818"/>
<path d="M114.665 303.418L158.773 303.336C161.631 303.335 172.2 302.959 174.176 303.366C174.423 303.417 174.508 303.499 174.689 303.627L174.788 304.488C166.749 304.894 158.455 304.512 150.383 304.513C138.824 304.513 127.226 304.766 115.675 304.556C115.295 304.549 115.13 304.505 114.822 304.299L114.665 303.418Z" fill="#191818"/>
<path d="M369.837 168.564L370.393 168.899C370.607 169.635 370.372 170.304 370.106 171.002C367.54 177.741 364.448 184.356 361.629 191.005C360.013 194.821 358.655 199.299 356.487 202.823C355.682 204.132 354.561 205.476 353.071 206.111C352.104 206.522 351.124 206.524 350.138 206.164C348.522 205.573 347.264 204.18 346.393 202.803C344.854 200.37 343.898 197.344 342.829 194.695C340.817 189.713 338.849 184.619 336.543 179.757C335.72 178.022 334.537 176.019 332.519 175.385C330.752 174.83 329.147 175.798 328.048 177.067C326.252 179.143 325.362 182.194 324.319 184.675L318.811 197.408C317.57 200.276 316.463 203.575 314.677 206.163C313.993 207.155 313.204 207.917 312.092 208.471C310.857 209.087 309.469 209.34 308.127 208.889C303.57 207.355 300.235 196.108 298.113 191.878C297.23 190.117 295.92 187.848 293.83 187.245C292.09 186.743 290.205 187.752 289.174 189.06C287.621 191.032 286.919 193.926 286.054 196.241C284.156 201.17 282.294 206.111 280.47 211.065C279.163 214.637 278.073 218.814 276.102 222.102C275.251 223.521 274.066 224.844 272.509 225.584C270.462 226.557 268.843 226.208 266.79 225.503C264.156 222.939 262.924 218.867 261.535 215.601L255.437 201.116C254.316 198.419 253.321 195.492 251.913 192.924C251.363 191.921 250.736 190.895 249.718 190.261C248.58 189.552 247.15 189.406 245.846 189.733C244.735 190.012 243.921 190.777 243.311 191.674C241.472 194.38 240.307 197.824 238.971 200.801L231.204 217.711C229.577 221.278 228.109 225.232 226.024 228.563C225.98 228.634 225.933 228.704 225.888 228.775C225.576 228.633 225.429 228.495 225.184 228.268C225.179 227.451 225.452 226.809 225.778 226.063C228.914 218.886 232.549 211.84 235.821 204.706C237.73 200.542 239.302 195.773 241.683 191.864C242.659 190.261 244.148 188.708 246.109 188.252C248.52 187.691 250.785 189.265 252.137 191.034C253.971 193.434 254.931 196.744 256.061 199.492C257.961 204.109 260.046 208.655 261.976 213.261C263.164 216.096 264.077 219.217 265.653 221.88C266.32 223.009 267.187 224.071 268.391 224.714C269.282 225.191 270.268 225.371 271.251 225.045C272.862 224.51 274.02 222.922 274.84 221.582C276.84 218.314 277.954 214.227 279.275 210.651L284.408 196.975C285.326 194.471 286.095 191.745 287.43 189.418C288.375 187.769 290.025 186.39 291.965 185.912C300.345 183.85 302.028 204.213 307.887 207.377C308.826 207.884 310.027 208.069 311.06 207.714C312.27 207.298 313.155 206.152 313.787 205.141C315.048 203.126 315.86 200.723 316.822 198.563C318.455 194.896 320.193 191.268 321.76 187.574C323.023 184.599 324.099 181.464 325.574 178.581C326.548 176.679 328.14 174.552 330.371 173.906C339.668 171.214 343.345 201.396 349.846 204.578C350.832 205.06 351.889 205.12 352.94 204.796C354.019 204.463 354.69 203.328 355.22 202.435C356.734 199.885 357.745 196.882 358.929 194.173C361.115 189.228 363.238 184.259 365.298 179.266C366.773 175.695 368.136 172.045 369.837 168.564Z" fill="#191818"/>
<path d="M257.117 248.387L269.996 248.384C269.843 271.961 269.825 295.537 269.942 319.112C265.694 319.088 261.446 319.096 257.198 319.136C257.097 295.566 257.629 271.946 257.117 248.387Z" fill="#A3C3D9" fill-opacity="0.7"/>
<path d="M155.025 157.661C156.689 157.646 158.333 157.675 159.991 157.811C170.335 158.662 180.442 163.524 187.088 171.182C193.02 178.018 197.046 187.731 196.152 196.696C182.423 197.028 168.613 196.727 154.878 196.7C154.698 190.282 154.838 183.821 154.841 177.399C154.844 170.835 154.709 164.215 155.025 157.661Z" fill="#191818"/>
<path d="M156.141 158.964C166.123 158.988 175.352 162.26 182.737 168.682C190.704 175.611 194.71 185.332 195.159 195.463L156.144 195.5C156.317 183.332 156.079 171.137 156.141 158.964Z" fill="#A3C3D9" fill-opacity="0.7"/>
<path d="M150.711 166.138L151.592 166.215C151.712 166.348 151.876 166.454 151.953 166.613C152.546 167.842 152.036 195.767 152.02 199.495C163.87 199.505 175.777 199.225 187.618 199.541C187.994 209.127 183.97 218.577 177.159 225.564C169.756 233.159 160.393 236.363 149.704 236.724C140.052 236.525 131.66 233.871 124.284 227.794C117.191 221.949 112.983 213.195 112.367 204.334C111.699 194.746 115.285 185.505 121.902 178.319C129.483 170.086 139.52 166.812 150.711 166.138Z" fill="#191818"/>
<path d="M147.801 167.598C148.767 167.452 149.822 167.47 150.802 167.415C150.768 178.484 150.459 189.648 150.84 200.706C162.673 200.868 174.536 200.692 186.372 200.684C186.269 208.694 183.523 216.092 178.321 222.404C172.032 230.034 163.225 234.348 153.205 235.52C142.945 235.937 134.146 233.792 125.988 227.664C119.152 222.529 114.824 214.483 113.863 206.293C112.761 196.891 115.423 187.626 121.704 180.257C128.295 172.523 137.554 168.578 147.801 167.598Z" fill="#AE76A6"/>
</g>
<defs>
<clipPath id="clip0_369_386">
<rect width="528" height="503" fill="white"/>
</clipPath>
</defs>
</svg>
